<svg width="512" height="512" viewBox="0 0 512 512" fill="none" xmlns="http://www.w3.org/2000/svg">
  <rect width="512" height="512" rx="86" fill="#21808D"/>
  <path d="M256 106.667C191.573 106.667 138.667 159.573 138.667 224C138.667 288.427 191.573 341.333 256 341.333C320.427 341.333 373.333 288.427 373.333 224C373.333 159.573 320.427 106.667 256 106.667ZM256 309.333C209.067 309.333 170.667 270.933 170.667 224C170.667 177.067 209.067 138.667 256 138.667C302.933 138.667 341.333 177.067 341.333 224C341.333 270.933 302.933 309.333 256 309.333Z" fill="white"/>
  <path d="M202.667 224L229.333 250.667L282.667 197.333" stroke="white" stroke-width="16" stroke-linecap="round" stroke-linejoin="round"/>
  <rect x="138.667" y="368" width="234.667" height="21.333" rx="10.667" fill="white"/>
</svg>
